<?xml version="1.0" encoding="utf-8"?>
<svg xmlns="http://www.w3.org/2000/svg" width="256" height="256" viewBox="0 0 256 256" role="img" aria-label="Simplified crystal hexagon favicon">
  <defs>
    <linearGradient id="g1" x1="0%" y1="0%" x2="100%" y2="100%">
      <stop offset="0%" stop-color="#77E6FF"/>
      <stop offset="60%" stop-color="#7B61FF"/>
      <stop offset="100%" stop-color="#C46BFF"/>
    </linearGradient>
    <linearGradient id="g2" x1="0%" y1="0%" x2="0%" y2="100%">
      <stop offset="0%" stop-color="#A8FFFD"/>
      <stop offset="50%" stop-color="#6EC8FF"/>
      <stop offset="100%" stop-color="#B36BFF"/>
    </linearGradient>
    <filter id="soft" x="-20%" y="-20%" width="140%" height="140%">
      <feGaussianBlur stdDeviation="6" result="blur"/>
      <feMerge><feMergeNode in="blur"/><feMergeNode in="SourceGraphic"/></feMerge>
    </filter>
  </defs>

  <!-- Transparent background for favicon -->
  <rect width="100%" height="100%" fill="transparent"/>

  <!-- Hexagon base (simplified crystal) -->
  <polygon points="223.26,73.00 223.26,183.00 128.00,238.00 32.74,183.00 32.74,73.00 128.00,18.00" fill="url(#g1)" stroke="#ffffff" stroke-opacity="0.10" stroke-width="2" filter="url(#soft)"/>

  <!-- Facet lines (subtle) -->
  <g stroke="#ffffff" stroke-opacity="0.06" stroke-width="1">
    <line x1="128" y1="128" x2="223.26" y2="73.00"/>
    <line x1="128" y1="128" x2="223.26" y2="183.00"/>
    <line x1="128" y1="128" x2="128.00" y2="238.00"/>
    <line x1="128" y1="128" x2="32.74" y2="183.00"/>
    <line x1="128" y1="128" x2="32.74" y2="73.00"/>
    <line x1="128" y1="128" x2="128.00" y2="18.00"/>
  </g>

  <!-- Stylized central "triangular" crystal (not pure triangle) -->
  <g transform="translate(0,4)">
    <!-- outer triangular prism -->
    <path d="M128 56 L192 144 L64 144 Z" fill="url(#g2)" stroke="#ffffff" stroke-opacity="0.14" stroke-width="1.5"/>
    <!-- inner inverted facet -->
    <path d="M128 100 L162 140 L94 140 Z" fill="rgba(255,255,255,0.06)"/>
    <!-- central diamond / prism -->
    <polygon points="128,110 146,128 128,146 110,128" fill="#FFFFFF" fill-opacity="0.95" stroke="#000000" stroke-opacity="0.08" stroke-width="0.6"/>
    <!-- thin highlights -->
    <path d="M128 56 L128 100" stroke="#FFFFFF" stroke-opacity="0.45" stroke-width="1"/>
    <path d="M128 146 L128 176" stroke="#FFFFFF" stroke-opacity="0.20" stroke-width="1"/>
    <path d="M96 120 L160 120" stroke="#FFFFFF" stroke-opacity="0.12" stroke-width="0.9"/>
  </g>

  <!-- Subtle inner glow to mimic crystal refraction -->
  <ellipse cx="128" cy="128" rx="56" ry="56" fill="none" stroke="#FFFFFF" stroke-opacity="0.03" stroke-width="24"/>

</svg>
